<svg width="450" height="195" viewBox="0 0 450 195" fill="none" xmlns="http://www.w3.org/2000/svg">
      <rect x="0.5" y="0.5" width="449" height="194" rx="4.5" fill="#282a36" stroke="#44475a" stroke-width="1"/>
      
      <text x="25" y="35" font-family="'Segoe UI', Ubuntu, Sans-Serif" font-weight="600" font-size="18px" fill="#ff6e96">Gabriel Martins's GitHub Stats</text>
      
      <g transform="translate(370, 105)">
        <circle cx="-10" cy="8" r="40" stroke="#ff6e96" fill="none" stroke-width="6" opacity="0.2" />
        <circle cx="-10" cy="8" r="40" stroke="#ff6e96" fill="none" stroke-width="6" stroke-linecap="round" opacity="0.8" stroke-dasharray="250" stroke-dashoffset="174.41958185054398" transform="rotate(-90, -10, 8)" />
        <text x="-10" y="8" font-family="'Segoe UI', Ubuntu, Sans-Serif" font-weight="800" font-size="24px" fill="#ff6e96" alignment-baseline="central" dominant-baseline="central" text-anchor="middle">
          B-
        </text>
      </g>

      <g transform="translate(25, 65)">
        <svg fill="#79dafa" viewBox="0 0 16 16" width="16" height="16">
          <path fill-rule="evenodd" d="M8 .25a.75.75 0 01.673.418l1.882 3.815 4.21.612a.75.75 0 01.416 1.279l-3.046 2.97.719 4.192a.75.75 0 01-1.088.791L8 12.347l-3.766 1.98a.75.75 0 01-1.088-.79l.72-4.194L.818 6.374a.75.75 0 01.416-1.28l4.21-.611L7.327.668A.75.75 0 018 .25z"/>
        </svg>
        <text x="25" y="12.5" font-family="'Segoe UI', Ubuntu, Helvetica Neue, Sans-Serif" font-weight="600" font-size="14px" fill="#f8f8f2">Total Stars:</text>
        <text x="140" y="12.5" font-family="'Segoe UI', Ubuntu, Helvetica Neue, Sans-Serif" font-weight="600" font-size="14px" fill="#f8f8f2">31</text>
      </g>

      <g transform="translate(25, 95)">
        <svg fill="#79dafa" viewBox="0 0 16 16" width="16" height="16">
          <path fill-rule="evenodd" d="M10.5 7.75a2.5 2.5 0 11-5 0 2.5 2.5 0 015 0zm1.43.75a4.002 4.002 0 01-7.86 0H.75a.75.75 0 110-1.5h3.32a4.001 4.001 0 017.86 0h3.32a.75.75 0 110 1.5h-3.32z"/>
        </svg>
        <text x="25" y="12.5" font-family="'Segoe UI', Ubuntu, Helvetica Neue, Sans-Serif" font-weight="600" font-size="14px" fill="#f8f8f2">Total Commits:</text>
        <text x="140" y="12.5" font-family="'Segoe UI', Ubuntu, Helvetica Neue, Sans-Serif" font-weight="600" font-size="14px" fill="#f8f8f2">7906</text>
      </g>

      <g transform="translate(25, 125)">
        <svg fill="#79dafa" viewBox="0 0 16 16" width="16" height="16">
          <path fill-rule="evenodd" d="M7.177 3.073L9.573.677A.25.25 0 0110 .854v4.792a.25.25 0 01-.427.177L7.177 3.427a.25.25 0 010-.354zM3.75 2.5a.75.75 0 100 1.5.75.75 0 000-1.5zm-2.25.75a2.25 2.25 0 113 2.122v5.256a2.251 2.251 0 11-1.5 0V5.372A2.25 2.25 0 011.5 3.25zM11 2.5h-1V4h1a1 1 0 011 1v5.628a2.251 2.251 0 101.5 0V5A2.5 2.5 0 0011 2.5zm1 10.25a.75.75 0 111.5 0 .75.75 0 01-1.5 0zM3.75 12a.75.75 0 100 1.5.75.75 0 000-1.5z"/>
        </svg>
        <text x="25" y="12.5" font-family="'Segoe UI', Ubuntu, Helvetica Neue, Sans-Serif" font-weight="600" font-size="14px" fill="#f8f8f2">Total PRs:</text>
        <text x="140" y="12.5" font-family="'Segoe UI', Ubuntu, Helvetica Neue, Sans-Serif" font-weight="600" font-size="14px" fill="#f8f8f2">3</text>
      </g>

      <g transform="translate(25, 155)">
        <svg fill="#79dafa" viewBox="0 0 16 16" width="16" height="16">
          <path fill-rule="evenodd" d="M8 1.5a6.5 6.5 0 100 13 6.5 6.5 0 000-13zM0 8a8 8 0 1116 0A8 8 0 010 8zm9 3a1 1 0 11-2 0 1 1 0 012 0zm-.25-6.25a.75.75 0 00-1.5 0v3.5a.75.75 0 001.5 0v-3.5z"/>
        </svg>
        <text x="25" y="12.5" font-family="'Segoe UI', Ubuntu, Helvetica Neue, Sans-Serif" font-weight="600" font-size="14px" fill="#f8f8f2">Total Issues:</text>
        <text x="140" y="12.5" font-family="'Segoe UI', Ubuntu, Helvetica Neue, Sans-Serif" font-weight="600" font-size="14px" fill="#f8f8f2">1</text>
      </g>
    </svg>